<svg width="67" height="67" viewBox="0 0 67 67" fill="none" xmlns="http://www.w3.org/2000/svg">
<path d="M39.6998 19.06C39.1798 19.06 38.7278 18.992 38.3438 18.856C37.9678 18.712 37.6718 18.48 37.4558 18.16C37.2398 17.84 37.1198 17.404 37.0958 16.852L36.8798 12.268H38.3078L38.4998 16.408C38.5238 16.752 38.5838 17.016 38.6798 17.2C38.7838 17.376 38.9278 17.496 39.1118 17.56C39.2958 17.616 39.5318 17.644 39.8198 17.644C40.0678 17.644 40.2438 17.712 40.3478 17.848C40.4598 17.976 40.5158 18.136 40.5158 18.328C40.5158 18.528 40.4438 18.7 40.2998 18.844C40.1558 18.988 39.9558 19.06 39.6998 19.06ZM37.6478 17.872C37.1358 18 36.6438 18.06 36.1718 18.052C35.6998 18.044 35.2758 17.964 34.8998 17.812C34.5238 17.66 34.2238 17.444 33.9998 17.164C33.7838 16.876 33.6758 16.516 33.6758 16.084C33.6758 15.692 33.7678 15.332 33.9518 15.004C34.1358 14.676 34.3878 14.388 34.7078 14.14C35.0358 13.884 35.4158 13.672 35.8478 13.504C36.2798 13.328 36.7478 13.2 37.2518 13.12L37.4198 14.56C37.0518 14.576 36.7238 14.624 36.4358 14.704C36.1478 14.784 35.9038 14.892 35.7038 15.028C35.5038 15.156 35.3478 15.296 35.2358 15.448C35.1318 15.6 35.0798 15.76 35.0798 15.928C35.0798 16.08 35.1318 16.204 35.2358 16.3C35.3478 16.396 35.4918 16.472 35.6678 16.528C35.8438 16.584 36.0398 16.616 36.2558 16.624C36.4798 16.632 36.6998 16.624 36.9158 16.6C37.1398 16.568 37.3518 16.516 37.5518 16.444L37.6478 17.872ZM39.7031 19.06L39.8231 17.644C40.2231 17.644 40.5071 17.604 40.6751 17.524C40.8431 17.444 40.9431 17.296 40.9751 17.08C41.0071 16.864 41.0151 16.552 40.9991 16.144L40.7951 10.3H42.2351L42.4391 16.132C42.4551 16.532 42.5071 16.844 42.5951 17.068C42.6911 17.284 42.8351 17.436 43.0271 17.524C43.2191 17.604 43.4591 17.644 43.7471 17.644C44.0031 17.644 44.1831 17.712 44.2871 17.848C44.3991 17.976 44.4551 18.136 44.4551 18.328C44.4551 18.528 44.3791 18.7 44.2271 18.844C44.0831 18.988 43.8831 19.06 43.6271 19.06C43.2831 19.06 42.9751 19.016 42.7031 18.928C42.4311 18.832 42.2071 18.684 42.0311 18.484C41.8631 18.276 41.7511 18.004 41.6951 17.668L42.1271 17.692C42.0071 18.036 41.8471 18.308 41.6471 18.508C41.4471 18.708 41.1871 18.852 40.8671 18.94C40.5551 19.02 40.1671 19.06 39.7031 19.06ZM43.6289 19.06L43.7489 17.644C44.2289 17.644 44.5969 17.624 44.8529 17.584C45.1089 17.536 45.2889 17.444 45.3929 17.308C45.5049 17.164 45.5609 16.956 45.5609 16.684C45.5609 16.468 45.5289 16.212 45.4649 15.916C45.4009 15.62 45.3209 15.308 45.2249 14.98C45.1289 14.652 45.0249 14.344 44.9129 14.056L46.3169 13.636C46.4209 13.9 46.5169 14.208 46.6049 14.56C46.7009 14.904 46.7809 15.256 46.8449 15.616C46.9089 15.968 46.9409 16.3 46.9409 16.612C46.9409 17.1 46.8649 17.504 46.7129 17.824C46.5689 18.144 46.3529 18.396 46.0649 18.58C45.7849 18.756 45.4369 18.88 45.0209 18.952C44.6129 19.024 44.1489 19.06 43.6289 19.06ZM45.2609 22.912C45.0769 22.912 44.9209 22.844 44.7929 22.708C44.6729 22.58 44.6129 22.428 44.6129 22.252C44.6129 22.06 44.6729 21.896 44.7929 21.76C44.9209 21.632 45.0769 21.568 45.2609 21.568C45.4449 21.568 45.6009 21.632 45.7289 21.76C45.8569 21.896 45.9209 22.06 45.9209 22.252C45.9209 22.428 45.8569 22.58 45.7289 22.708C45.6009 22.844 45.4449 22.912 45.2609 22.912ZM46.1489 21.448C45.9649 21.448 45.8089 21.38 45.6809 21.244C45.5529 21.116 45.4889 20.964 45.4889 20.788C45.4889 20.604 45.5529 20.444 45.6809 20.308C45.8089 20.172 45.9649 20.104 46.1489 20.104C46.3329 20.104 46.4889 20.172 46.6169 20.308C46.7449 20.444 46.8089 20.604 46.8089 20.788C46.8089 20.964 46.7449 21.116 46.6169 21.244C46.4889 21.38 46.3329 21.448 46.1489 21.448ZM44.4089 21.448C44.2249 21.448 44.0689 21.38 43.9409 21.244C43.8129 21.116 43.7489 20.964 43.7489 20.788C43.7489 20.604 43.8129 20.444 43.9409 20.308C44.0689 20.172 44.2249 20.104 44.4089 20.104C44.5849 20.104 44.7369 20.172 44.8649 20.308C45.0009 20.444 45.0689 20.604 45.0689 20.788C45.0689 20.964 45.0009 21.116 44.8649 21.244C44.7369 21.38 44.5849 21.448 44.4089 21.448Z" fill="#F43E3E"/>
<path d="M12 11V23C12 24.6569 13.3431 26 15 26H29.5C31.1569 26 32.5 27.3431 32.5 29V37C32.5 38.6569 33.8431 40 35.5 40H43.5C45.1569 40 46.5 41.3431 46.5 43V48" stroke="#F43E3E" stroke-width="2" stroke-linecap="round" stroke-linejoin="round"/>
<g filter="url(#filter0_d_7001_10965)">
<path d="M10.6718 48.024C10.2478 48.024 9.8638 47.952 9.5198 47.808C9.1838 47.656 8.9158 47.428 8.7158 47.124C8.5238 46.82 8.4278 46.44 8.4278 45.984C8.4278 45.56 8.5758 45.072 8.8718 44.52C9.1758 43.96 9.6838 43.388 10.3958 42.804L10.4078 43.74L9.4358 42.948L10.3718 41.808C10.9078 42.216 11.3758 42.628 11.7758 43.044C12.1838 43.452 12.4998 43.88 12.7238 44.328C12.9478 44.768 13.0598 45.24 13.0598 45.744C13.0598 45.968 13.0238 46.212 12.9518 46.476C12.8798 46.74 12.7558 46.988 12.5798 47.22C12.4038 47.452 12.1598 47.644 11.8478 47.796C11.5358 47.948 11.1438 48.024 10.6718 48.024ZM10.7558 46.62C10.9798 46.62 11.1638 46.58 11.3078 46.5C11.4598 46.412 11.5718 46.296 11.6438 46.152C11.7158 46.008 11.7518 45.848 11.7518 45.672C11.7518 45.512 11.7198 45.34 11.6558 45.156C11.5918 44.964 11.4638 44.756 11.2718 44.532C11.0798 44.3 10.7918 44.036 10.4078 43.74L11.1758 43.656C10.8638 43.896 10.6038 44.144 10.3958 44.4C10.1878 44.648 10.0358 44.888 9.9398 45.12C9.8518 45.352 9.8078 45.564 9.8078 45.756C9.8078 46.044 9.8998 46.26 10.0838 46.404C10.2678 46.548 10.4918 46.62 10.7558 46.62ZM13.0988 50.772L12.5948 49.5C13.0748 49.34 13.4988 49.152 13.8668 48.936C14.2348 48.728 14.5428 48.496 14.7908 48.24C15.0468 47.992 15.2348 47.728 15.3548 47.448C15.4828 47.168 15.5468 46.876 15.5468 46.572C15.5468 46.22 15.4668 45.844 15.3068 45.444C15.1548 45.036 14.9708 44.636 14.7548 44.244L16.0628 43.608C16.2068 43.864 16.3348 44.132 16.4468 44.412C16.5588 44.692 16.6548 44.948 16.7348 45.18C16.8148 45.404 16.8748 45.58 16.9148 45.708C17.0268 46.076 17.1748 46.324 17.3588 46.452C17.5508 46.58 17.8428 46.644 18.2348 46.644C18.4908 46.644 18.6708 46.712 18.7748 46.848C18.8868 46.976 18.9428 47.136 18.9428 47.328C18.9428 47.528 18.8708 47.7 18.7268 47.844C18.5828 47.988 18.3788 48.06 18.1148 48.06C17.7788 48.06 17.4908 48.008 17.2508 47.904C17.0188 47.792 16.8348 47.64 16.6988 47.448C16.5628 47.256 16.4748 47.044 16.4348 46.812L16.8548 47.04C16.8228 47.504 16.6908 47.936 16.4588 48.336C16.2348 48.744 15.9388 49.108 15.5708 49.428C15.2108 49.748 14.8148 50.02 14.3828 50.244C13.9508 50.476 13.5228 50.652 13.0988 50.772ZM15.4148 40.836C15.2308 40.836 15.0708 40.768 14.9348 40.632C14.7988 40.488 14.7308 40.324 14.7308 40.14C14.7308 39.948 14.7988 39.784 14.9348 39.648C15.0708 39.512 15.2308 39.444 15.4148 39.444C15.6068 39.444 15.7668 39.512 15.8948 39.648C16.0308 39.784 16.0988 39.948 16.0988 40.14C16.0988 40.324 16.0308 40.488 15.8948 40.632C15.7668 40.768 15.6068 40.836 15.4148 40.836ZM14.5148 42.324C14.3228 42.324 14.1588 42.256 14.0228 42.12C13.8868 41.976 13.8188 41.808 13.8188 41.616C13.8188 41.432 13.8868 41.272 14.0228 41.136C14.1588 41 14.3228 40.932 14.5148 40.932C14.6988 40.932 14.8588 41 14.9948 41.136C15.1308 41.272 15.1988 41.432 15.1988 41.616C15.1988 41.808 15.1308 41.976 14.9948 42.12C14.8588 42.256 14.6988 42.324 14.5148 42.324ZM16.2788 42.324C16.0948 42.324 15.9348 42.256 15.7988 42.12C15.6628 41.976 15.5948 41.808 15.5948 41.616C15.5948 41.432 15.6628 41.272 15.7988 41.136C15.9348 41 16.0948 40.932 16.2788 40.932C16.4708 40.932 16.6348 41 16.7708 41.136C16.9068 41.272 16.9748 41.432 16.9748 41.616C16.9748 41.808 16.9068 41.976 16.7708 42.12C16.6348 42.256 16.4708 42.324 16.2788 42.324ZM18.123 48.06L18.243 46.644C18.723 46.644 19.091 46.624 19.347 46.584C19.603 46.536 19.783 46.444 19.887 46.308C19.999 46.164 20.055 45.956 20.055 45.684C20.055 45.468 20.023 45.212 19.959 44.916C19.895 44.62 19.815 44.308 19.719 43.98C19.623 43.652 19.519 43.344 19.407 43.056L20.811 42.636C20.915 42.9 21.011 43.208 21.099 43.56C21.195 43.904 21.275 44.256 21.339 44.616C21.403 44.968 21.435 45.3 21.435 45.612C21.435 46.1 21.359 46.504 21.207 46.824C21.063 47.144 20.847 47.396 20.559 47.58C20.279 47.756 19.931 47.88 19.515 47.952C19.107 48.024 18.643 48.06 18.123 48.06ZM20.811 50.652C20.603 50.652 20.423 50.576 20.271 50.424C20.127 50.28 20.055 50.108 20.055 49.908C20.055 49.708 20.127 49.532 20.271 49.38C20.415 49.228 20.595 49.152 20.811 49.152C21.011 49.152 21.179 49.228 21.315 49.38C21.459 49.532 21.531 49.708 21.531 49.908C21.531 50.108 21.459 50.28 21.315 50.424C21.171 50.576 21.003 50.652 20.811 50.652ZM18.891 50.652C18.683 50.652 18.507 50.576 18.363 50.424C18.219 50.28 18.147 50.108 18.147 49.908C18.147 49.708 18.219 49.532 18.363 49.38C18.507 49.228 18.683 49.152 18.891 49.152C19.091 49.152 19.263 49.228 19.407 49.38C19.551 49.532 19.623 49.708 19.623 49.908C19.623 50.108 19.551 50.28 19.407 50.424C19.263 50.576 19.091 50.652 18.891 50.652ZM22.8383 50.76L22.5503 49.344C23.0783 49.272 23.5503 49.184 23.9663 49.08C24.3823 48.976 24.7343 48.828 25.0223 48.636C25.3183 48.444 25.5383 48.188 25.6823 47.868C25.8343 47.54 25.9103 47.124 25.9103 46.62C25.9103 46.42 25.8903 46.22 25.8503 46.02C25.8183 45.82 25.7623 45.64 25.6823 45.48C25.6103 45.32 25.5183 45.192 25.4063 45.096C25.2943 44.992 25.1623 44.94 25.0103 44.94C24.8503 44.94 24.7063 45 24.5783 45.12C24.4583 45.232 24.3623 45.376 24.2903 45.552C24.2183 45.72 24.1823 45.892 24.1823 46.068C24.1823 46.204 24.2103 46.32 24.2663 46.416C24.3303 46.504 24.4263 46.572 24.5543 46.62C24.6903 46.668 24.8583 46.692 25.0583 46.692C25.2663 46.692 25.4783 46.672 25.6943 46.632C25.9103 46.584 26.1023 46.52 26.2703 46.44L26.3183 47.568C26.1263 47.712 25.9023 47.832 25.6463 47.928C25.3983 48.024 25.1143 48.072 24.7943 48.072C24.4983 48.072 24.2263 48.04 23.9783 47.976C23.7383 47.904 23.5303 47.8 23.3543 47.664C23.1783 47.528 23.0383 47.352 22.9343 47.136C22.8383 46.92 22.7903 46.664 22.7903 46.368C22.7903 46.008 22.8463 45.656 22.9583 45.312C23.0783 44.968 23.2423 44.656 23.4503 44.376C23.6583 44.096 23.9023 43.876 24.1823 43.716C24.4703 43.548 24.7743 43.464 25.0943 43.464C25.4623 43.464 25.7863 43.556 26.0663 43.74C26.3463 43.924 26.5783 44.172 26.7623 44.484C26.9463 44.788 27.0863 45.124 27.1823 45.492C27.2783 45.86 27.3263 46.224 27.3263 46.584C27.3263 47.424 27.1503 48.14 26.7983 48.732C26.4463 49.332 25.9343 49.8 25.2623 50.136C24.5903 50.48 23.7823 50.688 22.8383 50.76Z" fill="#E86D20"/>
</g>
<path d="M20 1H66V17C66 44.062 44.062 66 17 66H1V20C1 9.50659 9.50659 1 20 1Z" stroke="#E86D20" stroke-width="2"/>
<defs>
<filter id="filter0_d_7001_10965" x="7.42773" y="38.4434" width="22.8984" height="15.3281" filterUnits="userSpaceOnUse" color-interpolation-filters="sRGB">
<feFlood flood-opacity="0" result="BackgroundImageFix"/>
<feColorMatrix in="SourceAlpha" type="matrix" values="0 0 0 0 0 0 0 0 0 0 0 0 0 0 0 0 0 0 127 0" result="hardAlpha"/>
<feOffset dx="1" dy="1"/>
<feGaussianBlur stdDeviation="1"/>
<feComposite in2="hardAlpha" operator="out"/>
<feColorMatrix type="matrix" values="0 0 0 0 0 0 0 0 0 0 0 0 0 0 0 0 0 0 0.25 0"/>
<feBlend mode="normal" in2="BackgroundImageFix" result="effect1_dropShadow_7001_10965"/>
<feBlend mode="normal" in="SourceGraphic" in2="effect1_dropShadow_7001_10965" result="shape"/>
</filter>
</defs>
</svg>
